<?xml version="1.0" encoding="utf-8"?>
<!-- Generator: Adobe Illustrator 16.0.0, SVG Export Plug-In . SVG Version: 6.00 Build 0)  -->
<!DOCTYPE svg PUBLIC "-//W3C//DTD SVG 1.1//EN" "http://www.w3.org/Graphics/SVG/1.1/DTD/svg11.dtd">
<svg version="1.1" id="Layer_1" xmlns="http://www.w3.org/2000/svg" xmlns:xlink="http://www.w3.org/1999/xlink" x="0px" y="0px"
	 width="300px" height="292px" viewBox="0 0 300 292" enable-background="new 0 0 300 292" xml:space="preserve">
<g>
	<line fill="none" x1="225.321" y1="105.902" x2="225.321" y2="105.902"/>
	<line fill="none" x1="225.321" y1="105.902" x2="225.321" y2="105.902"/>
	<path fill="#343333" d="M202.344,106.241c0.033,2.54,1.677,4.98,4.304,5.412c0.815,0.134,1.597,0.118,2.418,0.118h16.019h0.431
		c3.029-0.153,5.248-2.393,5.332-5.433c0.028-1.062,0-2.128,0-3.189c0-2.409,0.097-4.839,0-7.247
		c-0.12-2.987-2.385-5.247-5.381-5.331c-0.694-0.02-1.392,0-2.084,0h-9.056c-2.178,0-4.369-0.067-6.547,0
		c-2.54,0.078-4.849,1.713-5.318,4.304c-0.19,1.043-0.118,2.127-0.118,3.182C202.344,100.783,202.309,103.513,202.344,106.241
		 M211.406,96.466h8.593h3.685c0.268,0,0.825,0.088,1.268,0.084v0.001v4.069v4.628c0,0.142-0.033,0.39-0.047,0.628h-12.873h-3.168
		h-0.593c-0.014-0.155-0.03-0.306-0.03-0.395v-3.943v-4.191c0-0.288,0.006-0.577,0.003-0.867c0.092-0.006,0.184-0.014,0.259-0.014
		L211.406,96.466L211.406,96.466z"/>
	<path fill="#343333" d="M240.81,179.073c-1.686-2.18-4.121-3.135-6.815-3.135h-3.481h-13.943h-18.184h-16.687h-9.165
		c-2.962,0-5.831,1.349-7.286,4.029c-0.865,1.591-0.995,3.252-0.995,4.994v11.475v17.895v16.786c0,2.723-0.047,5.448,0,8.17
		c0.073,4.374,3.489,7.83,7.87,7.924c0.661,0.016,1.322,0,1.983,0h12.008h17.681h17.613h11.526h1.624
		c4.395-0.11,7.822-3.585,7.859-7.981c0.008-0.949,0-1.897,0-2.846v-13.688v-18.313v-15.394
		C242.418,185.706,242.938,181.828,240.81,179.073 M211.843,181.835v12.935h-18.314c-0.066-4.312-0.222-8.623-0.269-12.935H211.843z
		 M213.563,241.315H179.98c-2.576,0-5.152,0.021-7.728,0c-0.045,0-0.09,0.002-0.136,0c-0.084,0-0.354-0.006-0.256-0.006
		c-0.033,0-0.058,0.002-0.084,0.002c-0.03-0.013-0.063-0.026-0.106-0.044c-0.071-0.027-0.33-0.14-0.419-0.169
		c-0.157-0.102-0.336-0.215-0.355-0.21c-0.11-0.106-0.223-0.212-0.333-0.319c-0.028-0.026-0.04-0.034-0.061-0.053
		c-0.014-0.029-0.021-0.056-0.043-0.105c-0.037-0.08-0.169-0.399-0.193-0.425c-0.018-0.058-0.034-0.116-0.049-0.174
		c0.025,0.063-0.063-0.356-0.066-0.54c-0.015-0.833,0-1.667,0-2.501v-30.772V190.35c0-2.22-0.182-4.534,0.007-6.756
		c0.017,0.022,0.088-0.384,0.108-0.473c0.011-0.045,0.011-0.066,0.016-0.098c0.02-0.023,0.033-0.039,0.06-0.08
		c0.041-0.06,0.223-0.317,0.257-0.385c0.099-0.103,0.198-0.207,0.298-0.312c0.026-0.029,0.035-0.04,0.053-0.063
		c0.03-0.011,0.056-0.02,0.106-0.044c0.079-0.035,0.4-0.166,0.425-0.191c0.052-0.016,0.104-0.03,0.155-0.044
		c-0.024,0.014,0.349-0.07,0.479-0.07c0.155-0.006,0.313,0,0.472,0h3.194h11.584c0.059,5.294,0.297,10.585,0.303,15.882
		c0.003,1.593,1.35,2.947,2.948,2.947h24.175c1.595,0,2.948-1.351,2.948-2.947v-15.882h5.685h10.146c0.29,0,0.581-0.002,0.871,0
		c0.039,0,0.081,0,0.118,0c0.085,0,0.147,0.002,0.206,0.005c-0.079,0.009,0.378,0.089,0.474,0.11c0.047,0.01,0.064,0.01,0.095,0.017
		c0.024,0.018,0.041,0.033,0.081,0.059c0.123,0.068,0.245,0.142,0.361,0.221c0.002,0,0.002,0,0.004,0.002
		c0.1,0.104,0.197,0.208,0.297,0.312c0.035,0.067,0.217,0.324,0.256,0.386c0.028,0.04,0.042,0.055,0.062,0.08
		c0.003,0.029,0.004,0.051,0.015,0.097c0.032,0.152,0.079,0.319,0.121,0.471c-0.167-0.628-0.01,0.041-0.007,0.286
		c0.006,0.287,0,0.575,0,0.862v28.031v26.202c0,0.194,0,0.39-0.01,0.584c-0.016-0.004-0.086,0.385-0.105,0.472
		c-0.011,0.047-0.012,0.067-0.018,0.098c-0.017,0.024-0.031,0.039-0.059,0.079c-0.04,0.062-0.222,0.318-0.255,0.386
		c-0.1,0.104-0.197,0.209-0.299,0.313c-0.026,0.028-0.036,0.042-0.053,0.061c-0.031,0.014-0.057,0.02-0.106,0.043
		c-0.08,0.036-0.4,0.169-0.424,0.192c-0.051,0.017-0.104,0.03-0.154,0.045c0.027-0.015-0.35,0.068-0.48,0.07h-20.995V241.315z"/>
	<path fill="#343333" d="M63.889,215.599c0.083-0.084,0.169-0.167,0.242-0.253c0.021-0.025,0.029-0.038,0.045-0.057
		c0.168-0.069,0.347-0.213,0.505-0.306c0.004-0.002,0.004-0.002,0.008-0.006c0.149-0.044,0.298-0.082,0.447-0.121
		c0.075-0.013,0.251-0.042,0.402-0.046c0.254-0.006,0.51,0,0.765,0h12.033h3.544h27.009h26.972h15.469h0.726
		c1.542,0,3.019-1.355,2.949-2.948c-0.073-1.597-1.297-2.946-2.949-2.946h-11.281h-25.831H86.67h-5.386
		c-0.001-13.186-0.001-26.37-0.001-39.556c-0.001-14.223-0.002-28.447-0.002-42.668c0-14.285,0.001-28.569,0.005-42.854
		c0.002-7.111-0.014-14.222,0.007-21.333c0.003-1.195,0.041-2.389,0.151-3.58c0.024-0.259,0.054-0.518,0.082-0.777
		c0.002-0.018,0.002-0.021,0.004-0.035c0.007-0.036,0.014-0.07,0.025-0.132c0.091-0.493,0.177-0.983,0.295-1.47
		c0.104-0.42,0.222-0.835,0.362-1.244c0.05-0.144,0.105-0.286,0.158-0.429c0.043-0.092,0.09-0.194,0.101-0.215
		c0.167-0.338,0.351-0.667,0.558-0.983c0.068-0.106,0.22-0.254,0.283-0.382c0.02-0.022,0.039-0.046,0.06-0.067
		c0.235-0.258,0.499-0.477,0.746-0.72c0.167-0.11,0.331-0.224,0.502-0.328c0.299-0.18,0.616-0.32,0.922-0.482
		c0.026-0.01,0.052-0.021,0.078-0.029c0.221-0.076,0.44-0.154,0.664-0.222c0.412-0.126,0.831-0.232,1.252-0.322
		c0.223-0.047,0.446-0.089,0.67-0.128c0.101-0.018,0.202-0.033,0.303-0.05c1.072-0.098,2.137-0.185,3.214-0.199
		c7.092-0.088,14.19-0.017,21.282-0.022c14.224-0.012,28.448-0.019,42.673-0.003c7.173,0.008,14.345,0.021,21.52,0.044
		c1.268,0.003,2.536,0.007,3.802,0.127c0.176,0.017,1.138,0.178,0.325,0.028c0.209,0.039,0.421,0.066,0.631,0.104
		c0.524,0.097,1.046,0.218,1.561,0.37c0.181,0.053,0.359,0.111,0.539,0.172c0.115,0.04,0.229,0.089,0.346,0.126
		c0.402,0.13-0.114-0.113-0.204-0.092c0.239-0.057,0.938,0.471,1.145,0.598c0.143,0.09,0.28,0.186,0.42,0.279
		c0.303,0.292,0.596,0.584,0.886,0.889c0,0,0,0,0.002,0.002c0.106,0.163,0.217,0.32,0.314,0.488
		c0.103,0.169,0.199,0.342,0.287,0.518c0.022,0.042,0.081,0.16,0.138,0.273c-0.121-0.234,0.117,0.314,0.15,0.409
		c0.071,0.206,0.136,0.416,0.195,0.625c0.136,0.476,0.245,0.959,0.333,1.447c0.013,0.067,0.053,0.352,0.077,0.496
		c0.017,0.154,0.038,0.36,0.047,0.431c0.054,0.587,0.085,1.175,0.102,1.763c0.037,1.356,0.014,2.714,0.014,4.072
		c0.003,5.887,0.006,11.772,0.006,17.66c0.006,12.589,0.006,25.178,0.004,37.767c0,12.265-0.004,24.531-0.004,36.797
		c0,2.795,0,5.592,0,8.387c0,1.543,1.355,3.019,2.948,2.948c1.598-0.072,2.947-1.296,2.947-2.948
		c0-12.233,0.003-24.468,0.003-36.702c0.001-12.876,0.001-25.754,0-38.63c0-6.193-0.003-12.385-0.005-18.578
		c-0.002-2.913-0.005-5.827-0.005-8.74c-0.002-2.498-0.067-5.027-0.705-7.458c-1.109-4.237-4.054-7.324-8.229-8.628
		c-2.351-0.733-4.885-0.883-7.334-0.892c-3.616-0.014-7.233-0.02-10.85-0.028c-14.532-0.032-29.062-0.032-43.593-0.023
		c-7.296,0.005-14.591,0.012-21.887,0.019c-3.452,0.003-6.914-0.067-10.365,0.02c-2.206,0.058-4.491,0.264-6.605,0.925
		c-4.029,1.263-6.851,4.118-8.161,8.122c-0.702,2.144-0.936,4.464-1.033,6.708c-0.144,3.332-0.042,6.684-0.043,10.017
		c-0.005,14.591-0.008,29.181-0.01,43.772c0,14.529,0,29.058,0.001,43.587c0.001,14.529,0.002,29.059,0.003,43.589v7.369h-7.627
		c-2.119,0-4.077-0.061-6.06,0.978c-2.767,1.451-4.171,4.407-4.171,7.433v5.019c0,3.979-0.016,7.957,0,11.938
		c0.019,4.803,3.665,8.325,8.431,8.325h14.749h27.256h27.448h15.876h0.763c1.542,0,3.019-1.356,2.949-2.948
		c-0.073-1.597-1.297-2.947-2.949-2.947h-10.959h-25.241H87.804H68.409c-1.08,0-2.165-0.029-3.243-0.016
		c-0.025-0.01-0.038-0.018-0.071-0.028c-0.145-0.055-0.313-0.095-0.463-0.141c0.639,0.194-0.016-0.021-0.158-0.103
		c-0.136-0.081-0.265-0.17-0.396-0.258c0.633,0.428-0.398-0.599-0.181-0.22c-0.062-0.092-0.124-0.184-0.18-0.279
		c-0.055-0.093-0.104-0.207-0.135-0.286c-0.034-0.154-0.068-0.352-0.135-0.454c-0.006-0.009-0.009-0.007-0.014-0.016
		c0.001-0.021,0.002-0.03,0.002-0.056c-0.001-0.087-0.004-0.196-0.006-0.293c-0.003-0.143,0-0.285,0-0.43v-4.954v-11.883
		c0-0.118-0.002-0.234,0-0.354c0.003-0.125,0.01-0.252,0.018-0.377c0.005,0.381,0.332-0.77,0.109-0.397
		c0.074-0.138,0.15-0.273,0.223-0.412C63.804,215.707,63.847,215.65,63.889,215.599 M82.324,54.938
		c-0.015,0.037-0.027,0.064-0.031,0.063C82.293,55.003,82.307,54.976,82.324,54.938 M64.781,214.925
		C64.968,214.816,64.89,214.866,64.781,214.925 M63.897,215.589C63.991,215.475,64.068,215.406,63.897,215.589"/>
	<path fill="#343333" d="M165.667,148.118v12.585v1.747c0,1.543,1.357,3.018,2.948,2.948c1.597-0.072,2.946-1.296,2.946-2.948
		v-7.149v-17.622v-6.506v-15.768V94.015V79.322c0-1.012,0.007-2.024,0-3.037c-0.022-4.78-3.646-8.693-8.461-8.917
		c-3.422-0.159-6.887-0.006-10.313-0.006h-21.533h-19.41h-4.753c-4.219,0-8.249,2.697-8.992,7.049
		c-0.389,2.289-0.173,4.739-0.173,7.047v14.607v20.452v22.73v21.405v16.744v8.464c0,3.3,1.571,6.537,4.6,8.091
		c2.072,1.063,4.139,1.037,6.359,1.037h18.691h19.668h3.285c1.541,0,3.019-1.357,2.949-2.948c-0.074-1.598-1.296-2.947-2.949-2.947
		h-11.898h-1.096c0.004-0.063,0.02-0.121,0.02-0.185v-11.517v-27.649v-15.62h6.852h16.167c1.694,0,3.395,0.032,5.091,0.035v13.961
		H165.667z M163.89,73.434C163.775,73.375,163.683,73.317,163.89,73.434 M104.01,75.065c0.066-0.113,0.236-0.464,0.282-0.547
		c0.021-0.038,0.034-0.062,0.049-0.09c0.1-0.118,0.202-0.235,0.31-0.344c0.202-0.201,0.68-0.466,0.233-0.229
		c0.222-0.118,0.434-0.25,0.654-0.372c0.035-0.001,0.364-0.128,0.518-0.167c0.033-0.007,0.119-0.023,0.199-0.039
		c0.142-0.005,0.389-0.021,0.392-0.021c0.238-0.004,0.477,0,0.715,0h13.91h10.408c-0.004,0.062-0.019,0.119-0.019,0.182v11.518
		v27.648v15.618h-3.826h-16.168c-2.609,0-5.233-0.081-7.842,0v-0.728v-21.75V88.003V77.537c0-0.484-0.008-0.971,0-1.456
		c0.002-0.142,0.011-0.281,0.019-0.421c0.004-0.018,0.008-0.029,0.013-0.049C103.874,75.535,103.964,75.231,104.01,75.065
		 M104.393,187.99C104.083,187.659,104.299,187.873,104.393,187.99 M131.66,188.712c0.001,0.065,0,0.13,0,0.193
		s0.016,0.123,0.02,0.186h-14.678h-7.893h-2.029c-0.135,0-0.27,0.002-0.403,0c-0.182-0.003-0.361-0.014-0.542-0.022
		c0.583,0.028-0.09-0.043-0.319-0.103c-0.026-0.007-0.09-0.027-0.157-0.048c-0.104-0.051-0.356-0.165-0.369-0.174
		c-0.09-0.05-0.21-0.16-0.307-0.188c-0.007-0.001-0.009-0.001-0.015-0.004c-0.184-0.185-0.382-0.357-0.562-0.548
		c-0.081-0.128-0.164-0.251-0.238-0.382c-0.058-0.103-0.108-0.207-0.158-0.31c-0.008-0.029-0.016-0.052-0.028-0.099
		c-0.052-0.199-0.149-1.079-0.137-0.436c-0.003-0.17-0.019-0.343-0.022-0.513c0-0.013,0-0.024,0-0.038c-0.003-0.197,0-0.396,0-0.597
		v-3.269V169.12v-19.408v-15.591h6.27h15.53h6.038v11.725v28.884C131.66,179.385,131.545,184.058,131.66,188.712 M162.148,128.225
		h-15.53h-9.063v-11.723V87.619c0-4.656,0.114-9.328,0-13.983c-0.002-0.065,0-0.13,0-0.195c0-0.061-0.016-0.122-0.021-0.182h5.651
		h17.017c0.999,0,2.023,0.064,3.021,0.014c0.108,0.03,0.223,0.047,0.331,0.076c0.142,0.037,0.275,0.084,0.414,0.129
		c0.006,0.004,0.011,0.006,0.019,0.01c0.065,0.038,0.343,0.201,0.489,0.281c0.069,0.054,0.159,0.121,0.188,0.151
		c0.145,0.14,0.283,0.28,0.421,0.426c0.009,0.01,0.027,0.033,0.046,0.059c0.047,0.078,0.109,0.183,0.128,0.216
		c0.063,0.115,0.121,0.236,0.188,0.35c0.061,0.222,0.121,0.444,0.178,0.667c0,0.042,0.036,0.278,0.039,0.443
		c0.006,0.171,0,0.345,0,0.518v10.134v18.938v22.281v0.271L162.148,128.225L162.148,128.225z"/>
</g>
<g display="none">
	<path display="inline" fill="#343333" d="M184.769,105.57c0.658,4.227,2.567,8.244,5.771,11.147
		c2.856,2.588,6.561,4.202,10.394,4.461c-0.639,4.344,1.277,8.735,4.864,11.224c-1.002,1.812-1.338,3.975-0.893,6.023
		c0.381,1.752,1.369,3.287,2.711,4.412c0.789,0.661,1.7,1.183,2.685,1.521c1.004,0.344,2.149-0.395,2.418-1.374
		c0.297-1.078-0.365-2.073-1.372-2.418c-0.431-0.148-0.806-0.367-1.136-0.632c-1.938-1.553-2.128-4.852-0.099-6.755
		c1.168-1.095,0.439-2.786-0.867-3.285c-1.661-0.636-3.137-2.118-3.893-3.851c-0.887-2.032-0.765-4.306,0.034-6.337
		c0.443-1.129-0.704-2.6-1.896-2.488c-3.683,0.343-7.406-0.775-10.171-3.281c-2.35-2.13-3.98-5.069-4.582-8.178
		c1.427,0.006,2.849-0.041,4.237-0.105c1.06-0.05,1.966-0.868,1.966-1.966c0-1.026-0.9-2.017-1.966-1.966
		c-5.836,0.274-12.537,0.523-17.018-3.762c-0.229-0.218-0.456-0.438-0.672-0.68c-0.707-0.793-2.06-0.721-2.78,0
		c-0.788,0.787-0.709,1.985,0,2.78c0.109,0.123,0.227,0.229,0.339,0.346C176.063,103.789,180.318,105.129,184.769,105.57"/>
	<path display="inline" fill="#343333" d="M179.633,114.758c1.423,0.983,3.168,1.256,4.851,1.013
		c0.302-0.043,0.637-0.352,0.783-0.602c0.165-0.28,0.234-0.694,0.133-1.01c-0.242-0.745-0.883-1.02-1.612-0.916
		c0.165-0.023,0.169-0.019,0.001-0.005c-0.083,0.007-0.166,0.013-0.249,0.016c-0.15,0.005-0.3,0.004-0.449-0.002
		c-0.084-0.004-0.166-0.011-0.249-0.018c-0.024-0.001-0.03-0.001-0.044-0.002c-0.116-0.014-0.238-0.047-0.347-0.072
		c-0.162-0.038-0.322-0.083-0.48-0.137c-0.063-0.021-0.126-0.042-0.188-0.066c-0.043-0.016-0.086-0.033-0.128-0.05
		c-0.1-0.046-0.201-0.107-0.283-0.154c-0.142-0.079-0.279-0.166-0.414-0.258c-0.033-0.022-0.187-0.154-0.055-0.034
		c0.146,0.135-0.054-0.044-0.085-0.071c-0.106-0.09-0.209-0.185-0.309-0.282c-0.099-0.098-0.193-0.199-0.284-0.305
		c-0.013-0.013-0.187-0.242-0.076-0.085c-0.025-0.036-0.053-0.075-0.062-0.088c-0.159-0.229-0.303-0.468-0.425-0.718
		c-0.006-0.012-0.072-0.167-0.074-0.165c-0.008-0.017-0.013-0.031-0.013-0.033c-0.054-0.146-0.1-0.293-0.142-0.441
		c-0.184-0.661-0.937-1.135-1.611-0.916c-0.674,0.218-1.113,0.905-0.916,1.612C177.339,112.522,178.311,113.846,179.633,114.758"/>
	<path display="inline" fill="#343333" d="M290.617,9.38c-5.086-0.005-10.019,1.892-13.908,5.145
		c-3.754,3.139-7.182,8.276-4.43,13.025c-1.311,1.035-2.559,2.138-3.736,3.31c0.27-0.747,0.426-1.535,0.431-2.331
		c0.015-2.19-0.926-4.331-1.87-6.262c-1.694-3.472-4.301-6.528-7.703-8.417c-2.032-1.127-4.27-1.826-6.563-2.164
		c-0.715-0.105-1.389,0.168-1.613,0.915c-1.546,5.148-0.112,11.063,2.495,15.649c1.229,2.163,2.914,3.995,4.958,5.41
		c0.979,0.677,2.071,1.19,3.258,1.341c0.631,0.081,1.242,0.049,1.866-0.071c0.264-0.051,0.506-0.133,0.743-0.213
		c0.037,0.174,0.085,0.346,0.146,0.516c-1.327,1.72-2.525,3.536-3.596,5.428c-0.104-0.361-0.224-0.718-0.39-1.065
		c-0.422-0.88-0.926-1.721-1.492-2.515c-1.282-1.796-2.826-3.344-4.605-4.648c-1.79-1.313-3.841-2.314-5.983-2.899
		c-1.078-0.293-2.19-0.474-3.304-0.557c-0.613-0.046-1.265-0.094-1.872,0.023c-0.462,0.089-0.852,0.348-1.294,0.484
		c-0.516,0.16-1.009,0.686-0.963,1.264c0.39,4.831,1.794,9.475,4.819,13.323c1.499,1.908,3.397,3.716,5.548,4.868
		c1.823,0.975,3.709,1.258,5.592,0.883c-0.261,0.846-0.507,1.696-0.719,2.557c-0.624,2.533-1.012,5.113-1.228,7.711
		c-0.014,0.167-0.032,0.333-0.048,0.5c-0.013,0.09-0.025,0.179-0.039,0.268c-0.065,0.451-0.137,0.9-0.201,1.35
		c-0.463,3.203-0.688,6.42-0.578,9.657c0.101,2.972,0.449,5.927,0.997,8.847c-0.003-0.003-0.005-0.004-0.005-0.01
		c-0.38-0.792-0.754-1.54-1.173-2.254c-0.53-0.904-1.513-1.343-2.615-1.166c-1.015,0.17-1.526,0.957-1.486,1.847
		c0.183,3.794-1.456,7.339-1.645,10.969c-0.21,4.043-1.854,7.254-4.063,10.189c-6.233,8.263-12.707,16.343-19.114,24.468
		c-1.646,2.084-2.806,4.587-5.466,6.573c0.163-2.044,0.341-3.598,0.413-5.157c0.189-4.017,0.642-8.027-1.009-11.925
		c-4.214-9.967-10.348-17.902-20.917-22.011c-4.174-1.618-8.236-1.218-12.326-1.107c-5.517,0.157-10.674,1.861-14.789,5.819
		c-2.49,2.392-4.974,4.796-7.287,7.345c-1.034,1.141-2.097,1.796-3.591,2.136c-3.001,0.675-3.584,1.599-2.837,4.508
		c0.433,1.684,0.977,3.316,0.878,5.078c-0.419,7.673-0.314,15.269,3.545,22.267c0.275,0.498,0.498,1.127-0.104,1.546
		c-0.676,0.472-1.455,0.367-1.939-0.223c-0.433-0.537-0.636-1.264-0.898-1.919c-2.929-7.424-5.813-14.869-8.787-22.273
		c-0.957-2.385-2.293-4.626-3.19-7.024c-1.547-4.142-2.727-8.42-4.358-12.529c-2.975-7.451-6.146-14.822-9.285-22.214
		c-0.281-0.662-0.813-1.251-0.453-1.985c2.196-4.476,0.283-9.449,1.763-14.043c0.524-1.612-0.76-2.286-2.307-2.228
		c-1.277,0.046-2.044,0.858-2.844,1.743c-0.825,0.904-0.615,2.575-2.372,3.001c-0.662-2.523-1.408-4.987-1.946-7.497
		c-0.563-2.615-2.235-4.351-4.338-5.681c-1.54-0.97-3.486-1.317-4.705,0.334c-1.167,1.585-2.372,3.506-2.548,5.373
		c-0.675,7.366-0.499,14.691,3.872,21.166c0.897,1.33,1.579,2.661,1.959,4.252c0.498,2.084,1.415,4.069,2.117,6.107
		c0.923,2.674,2.182,5.308,2.627,8.066c0.53,3.29,1.579,6.421,2.444,9.58c1.933,6.998,4.633,13.78,6.546,20.779
		c1.848,6.789,4.253,13.387,6.317,20.09c2.268,7.359,3.716,14.966,6.651,22.122c0.485,1.187,0.36,2.49,0.177,3.82
		c-0.616,4.456-2.864,8.309-4.259,12.798c-6.56-2.176-11.428-1.743-17.273,1.521c-1.618,0.904-2.601,1.081-3.065-1.102
		c-0.716-3.413-2.524-6.389-4.228-9.35c-4.004-6.953-14.167-10.655-21.421-7.589c-3.944,1.665-7.739,3.833-11.284,6.245
		c-7.746,5.281-14.966,11.258-21.67,17.804c-6.795,6.631-13.925,12.948-19.73,20.549c-2.418,3.172-3.395,2.91-4.745-0.635
		c-3.401-8.938-16.585-11.763-23.334-4.738c-4.266,4.449-5.772,10.32-3.636,15.989c1.808,4.789,3.618,9.665,5.996,14.291
		c2.346,4.574,4.928,9.043,6.487,14.069c0.951,3.06,3.697,5.799,6.92,6.683c2.949,0.807,6.605,1.377,9.245-0.543
		c2.884-2.104,6.291-4.267,6.049-8.82c-0.138-2.641,2.044-2.693,3.951-2.896c1.9-0.203,3.27,0.072,3.918,2.326
		c0.938,3.276,1.842,6.592,3.407,9.672c2.34,4.613,4.318,9.351,6.029,14.252c1.553,4.43,3.637,8.735,7.411,11.985
		c1.973,1.703,4.063,2.365,6.37,1.678c4.41-1.317,8.224-3.506,9.802-8.283c0.406-1.219,1.18-2.333,1.501-3.571
		c0.498-1.933,1.526-2.51,3.474-2.149c2.194,0.4,4.317,0.072,6.041-1.56c2.536-2.398,4.974-4.882,5.4-8.577
		c0.196-1.69,1.173-2.929,2.162-4.154c1.9-2.353,3.886-4.64,5.825-6.959c2.071-2.483,2.117-2.529,4.344-0.046
		c5.098,5.688,11.113,9.967,18.394,12.457c9.128,3.538,18.977,1.493,19.96,1.316c7.319-1.33,13.708-4.501,18.708-10.013
		c3.637-4.017,7.509-7.883,9.606-13.105c1.383-3.452,3.282-6.689,4.822-10.084c3.237-7.162,7.13-13.983,10.236-21.244
		c4.035-9.436,8.735-18.648,13.963-27.555c5.793-9.868,12.792-18.95,18.217-29.1c3.768-7.038,8.833-13.414,13.047-20.268
		c3.898-6.356,8.289-12.392,12.129-18.806c2.517-4.194,3.802-9.436,8.61-12.011c0.753-0.406,1.343-1.219,1.802-1.939
		c2.313-3.63,3.297-7.994,6.291-11.238c0.748-0.813,1.626-4.554,1.611-5.57c-0.02-2.287-1.376-1.854-1.062-4.18
		c0.224-1.599-0.727-2.89-2.423-3.021c-3.631-0.288-6.691-0.504-8.809,3.741c-0.779,1.567-1.834,2.91-2.909,4.345
		c0,0-0.001,0-0.001,0.001c-0.945-4.674-1.354-9.432-1.089-14.207c0.259,0.322,0.539,0.626,0.859,0.889
		c0.962,0.789,2.323,1.236,3.521,1.521c4.889,1.165,10.591-0.353,14.577-3.319c1.134-0.844,2.219-1.784,3.093-2.9
		c0.805-1.027,1.279-2.305,2.186-3.248c0.64-0.665,0.408-1.55-0.264-2.059c-6.682-5.037-16.291-5.131-22.918-0.121
		c0.089-0.757,0.188-1.513,0.329-2.267c0.559-2.968,1.416-5.871,2.554-8.662c1.64,2.279,3.998,3.839,6.842,4.504
		c4.157,0.973,8.598,0.601,12.513-1.093c0.918-0.396,1.804-0.872,2.638-1.425c0.811-0.539,1.782-1.129,2.406-1.884
		c1.687-2.041-0.707-3.927-2.26-5.055c-3.735-2.714-8.16-4.515-12.802-4.717c-1.363-0.06-2.772,0.021-4.098,0.31
		c2.272-3.091,4.961-5.873,8.014-8.201c2.51,1.904,6.482,0.271,9.021-1.26c3.457-2.085,5.921-5.338,7.465-9.028
		c1.111-2.657,1.379-5.49,1.214-8.346C291.887,9.982,291.36,9.38,290.617,9.38 M262.467,32.43c-0.959-0.052-1.808-0.567-2.573-1.107
		c-1.696-1.2-3.037-2.802-4.033-4.616c-1.99-3.618-3.204-8.132-2.388-12.252c3.107,0.673,5.944,2.085,8.182,4.431
		c1.263,1.325,2.267,2.864,3.086,4.498c0.834,1.669,1.797,3.674,1.596,5.59c-0.032,0.303-0.106,0.575-0.203,0.833
		c-0.538-0.678-1.1-1.338-1.722-1.939c-0.519-0.503-1.082-0.964-1.674-1.38c-0.598-0.42-1.259-0.715-1.88-1.096
		c-1.088-0.668-1.733-1.558-2.375-2.631c-0.556-0.93-1.256-1.882-0.647-2.947c0.837-1.467-1.427-2.79-2.264-1.323
		c-0.86,1.508-0.717,3.063,0.058,4.568c0.654,1.271,1.423,2.58,2.496,3.54c1.142,1.023,2.587,1.533,3.753,2.508
		c1.014,0.849,1.869,1.861,2.673,2.909C263.866,32.195,263.206,32.471,262.467,32.43 M252.768,46.615
		c-1.892-1.044-3.56-2.656-4.874-4.358c-2.378-3.084-3.57-6.845-3.991-10.676c0.009-0.002,0.017-0.006,0.025-0.008
		c0.465-0.101,1.053-0.004,1.519,0.035c0.963,0.08,1.912,0.28,2.837,0.555c1.874,0.558,3.644,1.487,5.195,2.676
		c1.434,1.098,2.721,2.444,3.732,3.941c0.497,0.734,0.978,1.519,1.324,2.337c0.392,0.925,0.532,1.922,0.852,2.874
		c-0.06,0.129-0.12,0.259-0.178,0.388c-0.419-0.476-0.856-0.936-1.329-1.361c-1.052-0.944-2.216-1.62-3.428-2.325
		c-2.095-1.22-3.838-2.702-4.807-4.976c-0.276-0.65-1.236-0.795-1.793-0.47c-0.674,0.395-0.749,1.14-0.47,1.794
		c1.03,2.418,2.977,4.208,5.177,5.572c1.047,0.65,2.176,1.164,3.126,1.962c0.819,0.689,1.554,1.476,2.226,2.31
		c-0.245,0.096-0.488,0.205-0.752,0.287c-0.481,0.148-0.965,0.243-1.471,0.25C254.652,47.435,253.668,47.111,252.768,46.615
		 M161.776,110.686c2.543,0.78,3.656,2.811,5.406,4.03c1.062,0.74,2.234,1.9,3.381,0.537c1.075-1.277-0.157-2.417-0.982-3.354
		c-0.662-0.747-1.514-1.33-2.32-1.933c-0.746-0.57-1.29-1.219-0.818-2.176c0.491-0.996,1.422-0.786,2.28-0.635
		c0.852,0.15,1.711,0.288,2.536,0.524c0.753,0.216,1.454,0.269,1.907-0.452c0.413-0.642,0.544-1.526-0.033-2.005
		c-1.736-1.442-2.307-2.785-0.32-4.305c-0.1-0.131-0.132-0.321,0-0.478c0.006-0.007,0.012-0.02,0.025-0.026
		c0.001-0.002,0.004-0.004,0.006-0.006c-0.111-0.118-0.229-0.224-0.339-0.346c-0.709-0.794-0.788-1.993,0-2.78
		c0.721-0.721,2.073-0.793,2.78,0c0.216,0.242,0.444,0.462,0.672,0.68c1.038-0.579,2.16-1.037,3.244-1.421
		c3.263-1.153,6.5-1.192,9.907-1.33c2.693-0.105,5.426-0.053,8.053,0.61c2.366,0.596,4.476,2.45,6.547,3.951
		c5.472,3.978,10.359,8.729,11.801,15.478c1.815,8.473,1.6,16.926-4.698,23.99c-0.202,0.229-0.404,0.464-0.601,0.698
		c0.331,0.265,0.705,0.484,1.135,0.632c1.008,0.345,1.67,1.34,1.373,2.418c-0.269,0.979-1.414,1.717-2.418,1.373
		c-0.984-0.337-1.896-0.858-2.685-1.52c0,0-0.001,0.002-0.002,0.002c-0.931,0.878-2.031,1.625-3.072,2.34
		c-2.648,1.84-5.682,3.742-8.802,4.659c-2.037,0.596-4.167,0.871-6.29,0.825c-4.2-0.092-8.257-1.376-12.103-2.968
		c-0.4-0.164-0.793-0.335-1.193-0.505c-1.409-0.609-2.831-1.632-3.741-2.837c-1.409-1.874-2.876-3.545-4.974-4.672
		c-0.603-0.321-1.107-0.93-1.514-1.513c-0.721-1.029-1.861-2.215-0.989-3.44c0.799-1.12,2.07-0.229,3.165,0.085
		c4.102,1.159,8.184,1.513,12.286-0.197c1.795-0.747,3.624-1.566,5.668,0.053c1.219,0.957,2.588-0.111,2.418-1.698
		c-0.235-2.287-1.605-4.017-3.296-5.399c-1.638-1.337-2.942-0.997-3.427,1.127c-0.419,1.802-1.324,2.273-2.91,2.503
		c-3.604,0.51-7.194,0.767-10.72-0.321c-4.03-1.238-5.184-2.981-5.033-7.182c0.072-2.012-0.053-4.03,0.459-6.022
		C164.182,115.208,161.816,113.497,161.776,110.686 M204.619,150.888c-0.335,1.186-0.335,2.673-2.104,2.666
		c-0.294,0-0.852-0.511-0.845-0.779c0.02-1.809,1.277-2.202,2.667-2.478C204.514,150.657,204.645,150.795,204.619,150.888
		 M191.821,154.91c-2.405,3.677-5.55,4.463-9.135,4.521c-3.552,0.053-6.468-1.232-8.82-3.781c-1.153-1.245-0.714-2.752-0.013-4.022
		c0.648-1.187,1.946-0.833,2.641-0.223c3.951,3.505,8.794,2.935,13.479,3.139C190.393,154.563,190.806,154.708,191.821,154.91
		 M121.969,73.368c-1.533-0.367-3.493-2.922-3.781-4.764l-0.033-0.026c-0.04-0.026-0.675-1.775-0.688-1.828l-2.392-10.504
		c-0.026-0.098-0.026-0.177-0.006-0.249l-0.006-0.013c-0.046-0.164,0.098-0.269,0.223-0.256c0.288-0.124,0.74-0.013,0.799,0.158
		l2.025,6.369c0.079,0.203,0.334,0.184,0.419,0.033l-0.367-1.939l-1.965-8.998c-0.321-0.813,0.963-1.193,1.062-0.255l2.797,8.394
		c0.053,0.164,0.23,0.184,0.335,0.105l-0.637-3.388l-1.381-6.022c-0.138-0.445,0.975-0.714,1.047-0.19l2.778,9.017
		c0.053,0.17,0.243,0.196,0.354,0.111l-0.878-7.379c-0.007-0.045,0-0.085,0.019-0.118l-0.098-0.767
		c0.111-1.691,1.212-0.19,1.153,0.76l0.688,3.748c0.406,1.507,0.989,2.955,1.73,4.318c0.741,1.363,1.638,2.641,2.687,3.8
		c0.091,0.099,0.255,0.099,0.34-0.006l3.067-4.403c0.15-0.184,0.826,0.176,0.753,0.406l-1.527,4.344l-0.223,0.787
		c0.157,0.557,0.21,1.375,0.164,2.411C130.186,72.11,126.903,74.574,121.969,73.368 M140.421,133.922
		c-1.874-6.788-4.246-13.4-6.304-20.124c-2.844-9.298-4.967-18.819-8.427-27.94c-0.649-1.704-0.76-3.663-0.845-5.517
		c-0.099-1.966,2.136-4.174,4.115-4.279c1.219-0.065,1.795,0.813,2.163,1.776c2.988,7.922,6.487,15.635,9.311,23.623
		c2.241,6.323,4.968,12.476,7.478,18.708c2.463,6.095,4.895,12.195,7.41,18.27c1.18,2.844-0.138,5.491-0.937,7.922
		c-1.193,3.623-2.025,7.378-3.513,10.91c-0.392,0.924-0.667,1.913-1.789,2.319c-1.232-0.864-1.92-2.024-2.189-3.525
		C145.526,148.456,142.459,141.333,140.421,133.922 M40.24,244.671c-0.493,2.421-2.093,6.85-4.539,7.208
		c-3.333,0.487-6.882-3.02-8.7-5.855c-4.427-6.908-7.417-15.985-10.264-23.68c-1.291-3.488-2.417-7.317-1.309-10.867
		c1.321-4.23,6.05-7.088,10.41-6.289c4.357,0.801,7.145,4.796,8.859,9.034c4.796,9.714,3.157,12.141,5.737,22.662
		C41.023,239.283,40.733,242.249,40.24,244.671 M49.607,239.735c-0.092-2.274,0.151-4.22,2.536-5.707
		C53.316,238.425,53.276,238.51,49.607,239.735 M56.291,231.551c-0.661,0.171-1.042-0.269-1.284-0.845
		c-1.317-3.119-3.65-5.472-5.924-7.884c-2.261-2.391-5.131-4.036-8.322-6.225c1.055-0.452,1.33-0.688,1.566-0.648
		c5.563,0.8,13.642,8.485,14.691,13.898C57.169,230.634,57.202,231.315,56.291,231.551 M46.763,213.426
		c-0.196-0.131-0.236-0.504-0.498-1.101c2.85-2.805,5.694-5.813,8.754-8.591c7.156-6.48,12.687-14.573,20.222-20.621
		c4.967-3.99,9.475-8.729,15.694-10.989c0.655-0.235,1.199-0.779,1.789-1.18c0.603-0.398,1.186-0.825,1.795-1.198
		c3.958-2.444,8.427-1.127,12.582-1.265c3.151-0.111,5.229,3.178,6.965,5.903c2.11,3.303,3.171,7.058,4.666,10.622
		c0.747,1.789-0.289,2.981-1.403,4.194c-4.58,4.986-8.853,10.216-12.954,15.602c-1.5,1.973-2.274,4.279-3.788,6.402
		c-1.867-1.953-1.487-4.816-2.621-6.77c-2.293-3.951-0.262-5.956,2.267-8.263c1.585-1.448,3.237-2.877,4.384-4.744
		c0.57-0.931,0.819-1.959-0.144-2.726c-0.826-0.655-1.611,0.065-2.346,0.472c-0.248,0.138-0.511,0.302-0.688,0.518
		c-4.652,5.746-11.407,9.305-16.027,15.005c-6.009,7.405-13.8,13.034-19.868,20.354c-0.636,0.767-1.422,1.441-2.228,2.038
		c-1.402,1.028-3.008,0.885-3.781-0.544C56.501,220.942,51.999,216.854,46.763,213.426 M96.774,216.866
		c-4.259,6.775-8.525,13.551-12.811,20.308c-0.216,0.34-0.635,0.537-1.284,1.055c-1.984-2.713-2.431-5.773-4.338-8.178
		c-2.163-2.739-5.681-1.651-8.302-3.479c1.507-3.63,5.189-4.935,7.477-7.575c2.444-2.824,5.17-5.412,7.844-8.033
		c2.543-2.484,4.082-5.904,7.299-7.91c1.729,0.853,1.717,2.628,2.228,3.998c0.793,2.13,0.806,4.495,2.091,6.526
		C97.606,214.579,97.436,215.812,96.774,216.866 M83.184,272.108c-0.494,2.421-2.094,6.851-4.539,7.208
		c-3.334,0.487-6.881-3.02-8.7-5.855c-4.428-6.907-7.417-15.985-10.265-23.68c-1.29-3.487-2.416-7.317-1.308-10.867
		c1.32-4.229,6.05-7.087,10.408-6.288c4.358,0.8,7.146,4.795,8.86,9.033c4.797,9.714,3.157,12.141,5.737,22.662
		C83.967,266.722,83.676,269.687,83.184,272.108 M95.352,264.413c-0.715,0.728-1.573,1.304-2.646,0.864
		c-1.199-0.491-1.135-1.461-0.768-2.496c0.191-0.531,0.269-1.107,0.499-1.625c0.491-1.121,0.544-2.981,2.031-2.909
		c1.9,0.098,1.167,2.247,1.769,3.047C96.275,262.683,96.093,263.659,95.352,264.413 M83.479,243.358
		c3.708-1.913,5.982,0.414,8.158,1.776c5.156,3.211,7.739,7.273,7.601,11.579C95.47,250.711,90.287,246.445,83.479,243.358
		 M172.229,246.479c-3.545,4.331-7.692,7.817-13.007,9.993c-8.998,3.683-17.673,2.588-26.421-0.793
		c-4.233-1.639-7.568-4.594-11.245-7.038c-2.215-1.475-2.903-4.239-4.626-6.173c-0.721-0.813,0.052-1.553,0.603-2.247
		c7.143-9.004,14.226-18.054,21.729-26.769c2.019-2.346,2.057-2.955-0.445-6.428c-11.847,15.28-23.492,30.169-35.267,44.525
		c-1.834-0.092-2.208-1.238-2.647-2.012c-2.556-4.462-6.618-7.097-11.113-9.095c-1.979-0.878-2.392-1.672-1.219-3.499
		c3.788-5.917,7.457-11.913,11.258-17.831c1.396-2.168,2.804-4.317,4.134-6.539c5.091-8.512,11.134-16.329,18.459-23.072
		c2.208-2.03,4.489-4.022,7.308-5.248c4.455-1.939,7.75-1.966,12.056,2.555c4.358,4.587,7.608,9.928,10.013,15.846
		c3.67,9.028,6.959,18.144,9.108,27.665c0.604,2.667,2.641,4.364,4.725,5.95c2.392,1.821,4.757,3.63,6.428,6.237
		C172.962,243.923,173.225,245.266,172.229,246.479 M240.317,127.225c-3.656,5.471-7.044,11.152-10.628,16.664
		c-3.368,5.171-6.468,10.491-9.797,15.681c-7.267,11.33-15.202,22.292-20.51,34.789c-0.839,1.979-15.732,33.647-17.719,37.114
		c-1.205,2.109-2.201,4.344-3.23,6.546c-0.87,1.861-1.933,2.294-3.663,0.904c-2.581-2.077-5.287-3.997-7.896-6.041
		c-1.036-0.807-1.796-1.835-2.084-3.186c-1.736-8.145-4.816-15.902-7.483-23.74c-2.287-6.724-5.668-13.139-10.294-18.682
		c-1.579-1.894-1.809-3.388-0.903-5.786c3.197-8.446,5.962-17.057,9.159-25.517c1.036-2.738,1.782-5.694,2.772-8.512
		c0.557-1.586,0.852-3.44,3.289-3.263c3.532,0.262,5.334,1.375,5.938,3.958c0.163,0.694,0.111,1.435,0.183,2.148
		c0.348,3.467,1.796,6.521,4.534,8.545c4.489,3.322,9.272,5.576,15.209,3.191c2.851-1.141,5.708-1.92,7.582-4.567
		c0.498-0.701,1.18-1.271,2.097-1.436c0.878-0.15,1.756-0.209,2.451,0.453c0.779,0.746,0.334,1.565,0.039,2.378
		c-0.439,1.238-2.188,2.621-0.433,3.755c1.625,1.042,2.896-0.498,4.043-1.599c2.628-2.517,3.945-5.938,6.074-8.787
		c0.511-0.682,0.708-1.639,1.305-2.202c3.78-3.584,6.513-8.02,9.561-12.149c5.366-7.28,11.14-14.226,16.61-21.414
		c2.844-3.735,5.59-7.568,8.866-10.982c1.068-1.114,1.651-2.68,2.563-3.971c1.369-1.939,2.332-2.011,4.154-0.432
		c0.753,0.662,1.507,1.337,2.235,2.031c0.195,0.19,0.294,0.479,0.536,0.872C250.363,111.885,245.416,119.591,240.317,127.225
		 M258.98,84.652c1.173-1.003,2.233-2.149,3.157-3.408l1.986-3.256c0.288-0.911,1.849-1.913,1.35-0.295l-3.866,7.149
		c-0.117,0.243,0.217,0.458,0.387,0.243l5.818-7.424c0.263-0.465,1.199,0.183,0.918,0.55l-5.269,7.843
		c-0.131,0.229,0.19,0.459,0.36,0.249l5.616-6.84c0.426-0.839,1.493-0.02,0.898,0.622l-6.056,9.227
		c-0.138,0.243,0.184,0.472,0.366,0.262l4.168-5.216c0.19-0.216,1.265,0.059,0.819,0.701l-5.943,8.873l-0.053,0.078
		c-0.006,0.007-0.026,0.033-0.059,0.072c-0.145,0.21-0.314,0.413-0.544,0.623c-0.013,0.013-0.026,0.033-0.039,0.046
		c-0.157,0.177-0.315,0.354-0.433,0.484c-0.026,0.033-0.053,0.059-0.065,0.079c-0.118,0.177-0.236,0.367-0.341,0.557
		c-1.323,2.306-3.054,3.768-5.957,3.08c-1.971-0.465-3.964-3.053-4.402-5.838c-0.224-1.402-0.146-2.293,0.682-4.882v-0.013
		l0.176-6.206c0.021-0.236,0.773-0.334,0.852-0.111l1.285,5.21c0.046,0.13,0.196,0.19,0.32,0.13c0.529-0.269,1.04-0.569,1.541-0.885
		c0.317,1.149,0.655,2.292,1.028,3.423c0.524,1.595,3.057,0.912,2.528-0.697c-0.479-1.449-0.906-2.912-1.288-4.383
		C258.941,84.683,258.962,84.668,258.98,84.652 M278.479,59.37c-0.426,0.66-0.796,1.354-1.251,2.005
		c-0.745,1.067-1.829,2.001-2.887,2.746c-2.256,1.589-4.926,2.595-7.657,2.977c-1.32,0.185-2.714,0.201-4.025-0.048
		c-1.093-0.208-2.505-0.517-3.317-1.329c-0.558-0.558-0.916-1.241-1.116-1.975c1.043-0.135,1.969-0.601,2.961-1.009
		c1.156-0.477,2.359-0.522,3.584-0.307c2.62,0.461,5.099,1.409,7.79,0.837c1.648-0.35,0.951-2.877-0.697-2.527
		c-2.384,0.505-4.81-0.641-7.15-0.952c-1.266-0.167-2.566-0.148-3.789,0.259c-0.931,0.31-1.82,0.89-2.792,1.063l0.01-0.053
		c0.17-0.056,0.337-0.152,0.494-0.297C264.082,55.744,272.374,55.549,278.479,59.37 M279.897,42.949
		c0.785,0.487,1.583,0.978,2.304,1.561c0.287,0.233,0.566,0.48,0.833,0.737c0.022,0.023,0.109,0.118,0.188,0.206
		c-0.587,0.28-1.147,0.877-1.691,1.232c-0.779,0.508-1.604,0.962-2.461,1.324c-3.128,1.32-6.701,1.625-10.026,0.97
		c-1.45-0.286-2.849-0.769-4.063-1.63c-1.113-0.791-1.927-1.872-2.559-3.06c2.119-1.265,4.443-0.241,6.543,0.66
		c2.523,1.083,5.205,2.229,7.98,1.398c1.612-0.483,0.926-3.013-0.696-2.528c-2.507,0.75-5.087-0.792-7.34-1.718
		c-1.492-0.612-3.058-1.055-4.594-1.017c1.32-0.992,3.209-1.241,4.921-1.261C273.027,39.774,276.688,40.965,279.897,42.949
		 M284.716,23.596c-1.403,1.422-3.099,2.557-4.957,3.294c-1.027,0.408-2.331,0.931-3.357,0.628c1.556-1.383,2.85-3.002,4.167-4.636
		c1.425-1.767,2.707-3.798,4.821-4.697c0.651-0.276,0.795-1.238,0.47-1.792c-0.394-0.674-1.139-0.749-1.793-0.47
		c-2.259,0.96-3.638,2.994-5.129,4.833c-1.43,1.76-2.807,3.651-4.574,5.096c-0.802-1.733-0.532-3.488,0.496-5.237
		c1.035-1.76,2.485-3.288,4.084-4.548c2.972-2.339,6.637-3.752,10.402-4.013c0.009,2.207-0.297,4.358-1.221,6.415
		C287.278,20.355,286.171,22.121,284.716,23.596"/>
</g>
<g display="none">
	<path display="inline" fill="#343333" d="M201.202,152.302c-2.278-6.024-9.809-2.607-13.92-0.919
		c-9.496,3.905-18.139,9.835-24.769,17.726c-3.234,3.849-6.025,8.058-8.202,12.592c-0.566,1.176-1.096,2.369-1.59,3.578v-13.211
		v-25.57v-16.453c6.305-0.568,12.611-2.593,17.659-6.226c3.794-2.732,6.501-6.197,8.611-10.355c2.49-4.911,4.13-10.209,4.887-15.661
		c1.524-10.985-0.034-22.198-3.55-32.671c-0.907-2.7-1.959-5.347-3.096-7.959c-0.482-1.105-0.995-2.114-1.787-3.038
		c-1.026-1.195-2.953-2.425-4.572-2.208c-0.868,0.117-1.736,0.651-2.522,1.042c-0.67,0.334-1.33,0.682-1.984,1.042
		c-1.22,0.675-2.413,1.396-3.58,2.158c-0.619,0.405-1.233,0.822-1.84,1.249c-0.04-0.053-0.073-0.11-0.116-0.162
		c-0.179-0.21-0.349-0.451-0.074-0.072c-0.121-0.168-0.248-0.335-0.368-0.506c-0.285-0.41-0.556-0.831-0.823-1.254
		c-0.486-0.769-0.956-1.549-1.469-2.3c-1.162-1.704-2.559-3.422-4.464-4.33c-2.304-1.097-4.814-1.159-7.146-0.119
		c-1.89,0.842-3.273,2.468-4.459,4.107c-0.581,0.801-1.102,1.643-1.631,2.479c-0.273,0.43-0.548,0.86-0.836,1.281
		c-0.127,0.187-0.261,0.371-0.393,0.555c-0.007,0.01-0.016,0.021-0.026,0.033l0.017-0.018c0.308-0.307-0.091,0.098-0.128,0.143
		c-0.148,0.173-0.271,0.366-0.38,0.567c-1.245-0.86-2.5-1.708-3.78-2.513c-1.767-1.11-3.738-2.232-5.823-2.569
		c-2.786-0.449-5.241,0.427-6.907,2.758c-0.841,1.178-1.29,2.653-1.74,4.016c-0.467,1.412-0.856,2.847-1.193,4.295
		c-1.335,5.749-1.953,11.672-2.771,17.51c-0.908,6.481-1.256,12.993-0.067,19.464c1.014,5.528,3.192,11.117,6.248,15.838
		c2.717,4.2,6.339,7.951,10.854,10.203c3.914,1.952,8.17,2.949,12.517,3.278c0.382,0.029,0.767,0.047,1.152,0.065v13.654v24.871
		v16.357c-1.9-4.552-4.268-8.869-7.226-12.825c-6.082-8.134-14.071-14.704-23.241-19.085c-2.724-1.303-5.536-2.438-8.399-3.396
		c-2.31-0.772-5.034-1.509-7.303-0.192c-2.079,1.207-2.742,3.663-2.521,5.924c0.258,2.619,1.01,5.235,1.816,7.732
		c3.237,10.044,9.146,19.263,16.966,26.355c3.924,3.56,8.303,6.593,13.032,8.979c2.895,1.462,5.891,2.765,9.002,3.688
		c2.503,0.743,5.188,1.363,7.813,1.277c0.021,0,0.041-0.004,0.063-0.005v18.996v17.446v1.333c0,1.46,1.284,2.859,2.791,2.791
		c1.512-0.067,2.791-1.227,2.791-2.791v-16.095v-21.718c1.47,0.069,2.964-0.1,4.452-0.37c2.702-0.492,5.342-1.365,7.871-2.42
		c5.37-2.237,10.336-5.109,14.89-8.73c8.254-6.563,14.581-15.381,18.477-25.152c0.942-2.36,1.725-4.783,2.335-7.247
		C201.305,157.281,202.065,154.584,201.202,152.302 M195.927,154.113c0.004,0.018,0.007,0.034,0.011,0.054
		c-0.063-0.073-0.114-0.153-0.095-0.193C195.836,153.986,195.884,154.056,195.927,154.113 M149.233,202.749
		c-0.04-0.016-0.081-0.033-0.121-0.049C149.152,202.716,149.193,202.733,149.233,202.749 M167.966,118.7
		C168.139,118.555,168.09,118.602,167.966,118.7 M171.202,57.776c0.1,0.102,0.198,0.205,0.296,0.305
		c-0.366-0.375-0.01,0.016,0.115,0.231c0.218,0.377,0.4,0.772,0.577,1.169c0.096,0.212,0.187,0.423,0.279,0.635
		c0.032,0.079,0.18,0.422,0.231,0.541c0.893,2.131,1.702,4.298,2.423,6.493c1.46,4.446,2.555,9.01,3.219,13.643
		c0.011,0.09,0.071,0.537,0.081,0.624c0.034,0.28,0.067,0.561,0.098,0.841c0.066,0.607,0.125,1.215,0.175,1.824
		c0.096,1.167,0.162,2.338,0.194,3.509c0.066,2.329,0.001,4.662-0.209,6.981c-0.051,0.555-0.109,1.108-0.177,1.661
		c-0.013,0.102-0.025,0.205-0.038,0.308c-0.003,0.017-0.005,0.03-0.009,0.054c-0.046,0.321-0.095,0.642-0.146,0.962
		c-0.186,1.142-0.408,2.277-0.673,3.405c-0.527,2.259-1.217,4.481-2.074,6.637c-0.043,0.111-0.204,0.505-0.232,0.574
		c-0.032,0.074-0.2,0.458-0.25,0.567c-0.248,0.557-0.511,1.109-0.782,1.654c-0.531,1.061-1.104,2.1-1.717,3.114
		c-0.241,0.398-0.487,0.795-0.749,1.18c-0.111,0.161-0.224,0.318-0.336,0.477c-0.037,0.052-0.06,0.083-0.08,0.113
		c-0.006,0.008-0.007,0.009-0.015,0.02c-0.52,0.634-1.061,1.245-1.646,1.82c-0.574,0.566-1.189,1.078-1.807,1.594
		c-0.043,0.033-0.092,0.071-0.142,0.108c-0.164,0.121-0.328,0.24-0.494,0.356c-0.363,0.254-0.732,0.5-1.108,0.736
		c-0.731,0.461-1.486,0.886-2.256,1.28c-0.377,0.191-0.756,0.375-1.138,0.55c-0.192,0.089-0.386,0.174-0.579,0.26
		c-0.007,0.003-0.02,0.008-0.033,0.014c-0.071,0.029-0.158,0.063-0.184,0.075c-0.025,0.009-0.05,0.018-0.074,0.028
		c2.313-4.089,4.287-8.39,5.316-12.984c1.162-5.193,1.208-10.552,0.074-15.753c-1.911-8.767-7.121-16.456-13.306-22.843
		c1.205-1.183,2.43-2.346,3.692-3.467c0.753-0.67,1.52-1.327,2.297-1.969c0.798-0.658,1.555-1.256,2.154-1.705
		C165.017,61.264,168.026,59.363,171.202,57.776 M146.724,55.77c0.083-0.117,0.667-0.843,0.194-0.276
		c0.132-0.158,0.261-0.32,0.397-0.475c0.296-0.337,0.618-0.646,0.957-0.941c0.076-0.055,0.199-0.146,0.263-0.186
		c0.128-0.08,0.264-0.144,0.398-0.211c0.024,0.01,0.422-0.139,0.537-0.176c0.028-0.01,0.05-0.018,0.069-0.024
		c0.028,0.001,0.057,0.002,0.094,0.003c0.162,0.004,0.323,0.008,0.484,0.012c-0.04,0.013,0.466,0.07,0.598,0.109
		c0.078,0.022,0.156,0.051,0.233,0.079c0.168,0.122,0.396,0.208,0.571,0.322c0.055,0.035,0.107,0.074,0.161,0.111
		c0.023,0.02,0.039,0.034,0.074,0.063c0.192,0.194,0.398,0.373,0.587,0.572c0.144,0.152,0.275,0.314,0.414,0.469
		c0.042,0.053,0.069,0.086,0.093,0.114c0.039,0.055,0.079,0.108,0.119,0.162c1.247,1.731,2.25,3.605,3.573,5.279
		c-0.352,0.287-0.704,0.571-1.052,0.862c-1.9,1.6-3.724,3.291-5.496,5.032c-2.208-1.982-4.512-3.854-6.884-5.638
		C144.472,59.382,145.49,57.511,146.724,55.77 M127.123,58.225c0.042-0.03,0.07-0.04,0.071-0.029
		c-0.011,0.006-0.022,0.012-0.033,0.018c0.009-0.001,0.015-0.003,0.025-0.007c-0.011,0.013-0.04,0.027-0.094,0.042
		c0,0,0.001,0,0.002-0.001c-0.003,0.001-0.006,0.002-0.009,0.003c-0.012,0.004-0.019,0.008-0.026,0.008
		c-0.007,0.001-0.015,0.003-0.015,0C127.046,58.249,127.08,58.237,127.123,58.225 M146.419,124.55
		c-0.43-0.027-0.861-0.062-1.291-0.104c-0.214-0.022-0.428-0.045-0.641-0.07c-0.067-0.008-0.134-0.017-0.202-0.025
		c-0.004-0.001-0.004-0.001-0.01-0.002c-0.868-0.16-1.738-0.29-2.598-0.488c-0.843-0.194-1.677-0.424-2.5-0.691
		c-0.39-0.126-0.775-0.261-1.159-0.405c-0.189-0.071-0.377-0.146-0.567-0.22c-0.046-0.019-0.071-0.027-0.102-0.039
		c-0.019-0.01-0.032-0.016-0.066-0.032c-1.499-0.69-2.906-1.488-4.247-2.454c-0.019-0.013-0.022-0.015-0.035-0.024
		c-0.025-0.021-0.042-0.036-0.08-0.067c-0.217-0.179-0.435-0.357-0.647-0.542c-0.459-0.398-0.905-0.812-1.335-1.242
		c-0.805-0.804-1.567-1.658-2.263-2.559c-0.056-0.078-0.247-0.336-0.288-0.393c-0.164-0.227-0.326-0.457-0.483-0.688
		c-0.343-0.502-0.673-1.014-0.988-1.533c-0.61-1.002-1.169-2.035-1.683-3.089c-0.247-0.508-0.481-1.021-0.71-1.535
		c0-0.001-0.047-0.11-0.08-0.186c-0.032-0.077-0.078-0.185-0.078-0.185c-0.142-0.348-0.281-0.696-0.414-1.047
		c-0.416-1.09-0.793-2.194-1.134-3.31c-0.387-1.263-0.718-2.542-0.973-3.84c-0.275-1.396-0.387-2.203-0.508-3.599
		c-0.234-2.701-0.223-5.418-0.046-8.123c0.179-2.741,0.5-5.014,0.875-7.588c0.744-5.12,1.277-10.284,2.463-15.328
		c0.293-1.247,0.627-2.487,1.015-3.709c0.185-0.58,0.382-1.157,0.593-1.729c0.035-0.093,0.188-0.446,0.206-0.504
		c0.106-0.208,0.215-0.412,0.335-0.612c0.021-0.034,0.044-0.065,0.066-0.098c0.004-0.002,0.006-0.003,0.011-0.005
		c0.067-0.043,0.148-0.146,0.204-0.206c0.009-0.003,0.015-0.004,0.024-0.009c0.043-0.02,0.092-0.044,0.141-0.07
		c0.058-0.014,0.108-0.025,0.134-0.031c0.165,0.003,0.332,0.004,0.496,0.004h0.002c0.214,0.053,0.429,0.096,0.642,0.158
		c0.191,0.055,0.378,0.122,0.567,0.185c0.067,0.022,0.132,0.048,0.199,0.074c0.379,0.184,0.761,0.36,1.134,0.562
		c0.808,0.437,1.588,0.927,2.359,1.427c1.707,1.107,3.39,2.252,5.044,3.437c0.849,0.607,1.688,1.225,2.519,1.854
		c0.197,0.148,0.393,0.298,0.587,0.447c0.083,0.064,0.166,0.129,0.248,0.194c0.433,0.338,0.862,0.679,1.288,1.024
		c1.65,1.334,3.258,2.721,4.81,4.168c1.549,1.443,3.043,2.948,4.461,4.521c0.702,0.78,1.388,1.577,2.05,2.392
		c0.159,0.196,0.317,0.391,0.473,0.587c0.064,0.082,0.129,0.165,0.194,0.246c0.322,0.425,0.64,0.851,0.949,1.284
		c1.201,1.673,2.303,3.418,3.273,5.233c0.48,0.898,0.928,1.814,1.341,2.747c0.035,0.083,0.07,0.165,0.106,0.249
		c0.088,0.22,0.178,0.439,0.264,0.659c0.192,0.492,0.374,0.988,0.543,1.487c0.668,1.968,1.128,3.978,1.457,6.027
		c0.011,0.09,0.021,0.179,0.031,0.268c0.027,0.247,0.054,0.494,0.075,0.742c0.05,0.54,0.085,1.082,0.105,1.624
		c0.043,1.063,0.031,2.126-0.031,3.188c-0.029,0.521-0.073,1.041-0.128,1.56c-0.009,0.086-0.051,0.435-0.063,0.554
		c-0.01,0.068-0.02,0.141-0.021,0.151c-0.027,0.177-0.055,0.354-0.083,0.531c-0.206,1.239-0.479,2.468-0.818,3.679
		c-0.34,1.212-0.743,2.406-1.2,3.578c-0.266,0.683-0.281,0.713-0.53,1.275c-0.267,0.597-0.546,1.187-0.835,1.773
		c-1.109,2.247-2.374,4.413-3.691,6.543c-0.28,0.454-0.393,0.991-0.364,1.526c-0.244,0.043-0.488,0.09-0.733,0.128
		c-0.04,0.005-0.164,0.025-0.279,0.043c-0.021,0-0.421,0.056-0.501,0.065c-0.472,0.055-0.946,0.102-1.421,0.141
		C150.059,124.647,148.235,124.666,146.419,124.55 M104.511,154.439c0.008,0.017-0.07,0.001-0.154-0.021
		C104.435,154.423,104.507,154.43,104.511,154.439 M103.992,154.411h0.013C103.996,154.451,103.987,154.46,103.992,154.411
		 M103.621,154.413C103.489,154.414,103.403,154.405,103.621,154.413 M103.62,154.44c0.02-0.019,0.059-0.023,0.102-0.027
		c0.01,0,0.021,0,0.031,0C103.62,154.501,103.451,154.6,103.62,154.44 M144.936,197.821c-0.612-0.096-1.22-0.213-1.824-0.35
		c-1.128-0.257-2.246-0.572-3.347-0.929c-1.312-0.425-2.661-0.942-3.741-1.421c-2.449-1.087-4.845-2.318-7.129-3.72
		c-1.044-0.64-2.067-1.316-3.066-2.026c-0.464-0.33-0.922-0.668-1.377-1.01c-0.077-0.06-0.114-0.086-0.136-0.101
		c-0.021-0.018-0.055-0.045-0.131-0.105c-0.274-0.219-0.548-0.436-0.819-0.658c-1.866-1.525-3.632-3.173-5.291-4.922
		c-0.845-0.89-1.662-1.81-2.449-2.752c-0.365-0.438-0.724-0.883-1.078-1.329c-0.059-0.075-0.086-0.109-0.104-0.131
		c-0.015-0.021-0.042-0.058-0.103-0.139c-0.211-0.279-0.421-0.561-0.629-0.845c-1.423-1.949-2.725-3.987-3.898-6.096
		c-0.597-1.073-1.159-2.166-1.686-3.275c-0.244-0.515-0.482-1.033-0.711-1.555c-0.052-0.12-0.104-0.239-0.157-0.36
		c-0.011-0.026-0.016-0.036-0.022-0.053c-0.002-0.004-0.002-0.004-0.003-0.008c-0.117-0.284-0.233-0.567-0.346-0.854
		c-0.887-2.238-1.631-4.534-2.221-6.87c-0.139-0.551-0.27-1.105-0.392-1.661c-0.065-0.297-0.13-0.594-0.188-0.892
		c-0.022-0.119-0.044-0.237-0.065-0.357c-0.001-0.008-0.002-0.012-0.003-0.021c0-0.007,0.001-0.009,0.001-0.018
		c0.003-0.132,0.037-0.626,0.028-0.956c0.031,0,0.061-0.001,0.091,0c-0.005-0.001,0.062,0.002,0.138,0.006
		c0.502,0.177,1.071,0.244,1.585,0.407c1.444,0.457,2.872,0.967,4.282,1.521c0.353,0.138,0.704,0.279,1.055,0.422
		c-0.012-0.004,0.16,0.067,0.249,0.104c0.071,0.03,0.164,0.07,0.163,0.069c0.555,0.241,1.109,0.489,1.658,0.744
		c2.135,0.994,4.217,2.106,6.227,3.334c1.013,0.618,2.008,1.265,2.984,1.94c0.451,0.313,0.897,0.631,1.34,0.954
		c0.238,0.176,0.474,0.352,0.709,0.529c0.077,0.06,0.154,0.117,0.23,0.176c0.028,0.021,0.063,0.049,0.104,0.082
		c3.614,2.863,6.875,6.11,9.749,9.716c0.039,0.049,0.068,0.086,0.092,0.116l0.162,0.211c0.176,0.233,0.352,0.468,0.524,0.705
		c0.347,0.472,0.686,0.948,1.018,1.43c0.666,0.968,1.301,1.957,1.905,2.964c1.175,1.955,2.233,3.982,3.167,6.065
		c0.121,0.271,0.239,0.541,0.357,0.814l0.002,0.006c0.055,0.131,0.109,0.264,0.164,0.396c0.226,0.558,0.444,1.116,0.651,1.68
		c0.421,1.135,0.807,2.282,1.157,3.442c0.564,1.873,0.905,3.783,1.542,5.622C145.214,197.854,145.075,197.837,144.936,197.821
		 M192.743,166.011C192.611,166.334,192.694,166.128,192.743,166.011 M195.902,155.641c-0.056,0.296-0.12,0.591-0.184,0.885
		c-0.13,0.599-0.271,1.194-0.42,1.789c-0.289,1.146-0.616,2.283-0.978,3.408c-0.376,1.168-0.791,2.322-1.243,3.462
		c-0.098,0.244-0.195,0.487-0.295,0.732c-0.014,0.032-0.022,0.053-0.033,0.079c-0.05,0.113-0.099,0.229-0.147,0.343
		c-0.247,0.563-0.502,1.121-0.766,1.675c-1.034,2.179-2.208,4.294-3.505,6.327c-0.66,1.036-1.354,2.052-2.079,3.044
		c-0.181,0.248-0.365,0.495-0.551,0.74c-0.064,0.088-0.131,0.175-0.197,0.262c-0.002,0.004-0.004,0.006-0.007,0.008
		c-0.405,0.519-0.819,1.03-1.243,1.535c-1.522,1.814-3.152,3.536-4.885,5.151c-0.896,0.837-1.82,1.645-2.77,2.421
		c-0.237,0.194-0.476,0.387-0.717,0.577c-0.082,0.064-0.164,0.129-0.245,0.193c-0.008,0.005-0.011,0.007-0.02,0.015
		c-0.522,0.396-1.052,0.785-1.588,1.166c-1.931,1.362-3.948,2.602-6.041,3.701c-2.695,1.415-5.1,2.532-7.943,3.438
		c-1.051,0.335-2.115,0.635-3.191,0.879c-0.562,0.128-1.126,0.233-1.693,0.33c-0.038,0.007-0.14,0.02-0.21,0.028
		c-0.08,0.009-0.161,0.019-0.242,0.026c-0.022,0.002-0.046,0.002-0.069,0.005c0.29-0.818,0.522-1.657,0.719-2.482
		c0.533-2.235,1.151-4.42,1.95-6.578c0.196-0.523,0.396-1.044,0.605-1.56c0.039-0.096,0.201-0.486,0.22-0.536
		c0.116-0.267,0.232-0.534,0.352-0.8c0.468-1.046,0.967-2.075,1.496-3.091c1.071-2.048,2.266-4.033,3.575-5.938
		c0.308-0.446,0.622-0.89,0.944-1.33c0.171-0.235,0.346-0.47,0.522-0.704c0.074-0.101,0.15-0.199,0.227-0.299
		c0.009-0.013,0.011-0.015,0.019-0.023c0.019-0.023,0.046-0.058,0.084-0.105c0.704-0.879,1.421-1.746,2.171-2.589
		c1.528-1.718,3.156-3.343,4.875-4.868c0.879-0.781,1.783-1.529,2.703-2.259c0.061-0.047,0.094-0.074,0.117-0.094
		c0.023-0.019,0.061-0.045,0.117-0.088c0.235-0.177,0.471-0.354,0.708-0.53c0.475-0.351,0.956-0.693,1.442-1.029
		c1.921-1.332,3.92-2.553,5.981-3.658c1.06-0.57,2.137-1.108,3.229-1.616c0.509-0.237,1.022-0.468,1.538-0.691
		c0.413-0.18,0.886-0.374,1.586-0.647c1.409-0.554,2.838-1.063,4.28-1.521c0.495-0.157,0.993-0.278,1.499-0.395
		c0.018-0.005,0.03-0.008,0.045-0.012c0.025,0,0.054,0,0.088-0.001c0.077-0.002,0.154-0.002,0.232-0.002
		c0.008,0.098,0.018,0.195,0.018,0.245c0,0.235-0.044,0.475-0.038,0.707c0,0.005,0,0.005,0.001,0.009
		C195.932,155.464,195.917,155.553,195.902,155.641"/>
	<path display="inline" fill="none" stroke="#343333" stroke-width="0" stroke-linecap="round" stroke-linejoin="round" d="
		M149.111,202.7c0.041,0.016,0.082,0.033,0.122,0.048"/>
	<path display="inline" fill="#343333" d="M127.161,58.214c-0.014,0.004-0.026,0.008-0.038,0.011
		c-0.009,0.005-0.019,0.014-0.029,0.023C127.112,58.239,127.135,58.228,127.161,58.214"/>
	<path display="inline" fill="#343333" d="M139.142,57.129C138.946,57.324,139.069,57.212,139.142,57.129"/>
</g>
</svg>
